<svg fill="none" xmlns="http://www.w3.org/2000/svg">
  <symbol id="star" viewBox="0 0 33 33" fill="none">
    <path
      d="M10.5263 29.0298C10.0824 29.0298 9.66025 28.9499 9.27451 28.7902C8.13187 28.3256 7.54963 27.2004 7.54235 25.4436C7.53508 24.2966 7.76069 22.9827 7.99359 21.7341C8.0882 21.2332 8.26287 20.2822 8.29926 19.7668C7.17846 18.8884 4.08532 16.2459 3.96887 13.8576C3.9252 13.0227 4.23815 12.2605 4.8495 11.7233C5.75197 10.9175 7.10568 10.5255 8.98339 10.5255C9.90042 10.5255 10.7665 10.6199 11.3997 10.6852C11.4215 10.6852 11.4433 10.6925 11.4579 10.6925C11.6835 10.2641 11.9819 9.55272 12.1493 9.16071C12.2003 9.0373 12.2512 8.90663 12.3094 8.78322C13.1901 6.65621 14.1944 4.23881 16.2468 3.99199C16.3487 3.97747 16.4506 3.97021 16.5525 3.97021C18.0154 3.97021 19.2526 5.13172 20.337 7.52008C20.7228 8.37669 21.0939 9.40027 21.4287 10.5255C21.5306 10.5255 21.6325 10.5255 21.7417 10.5255C26.1303 10.5255 28.4884 11.4184 28.9542 13.2623C29.4855 15.3748 27.3166 17.1534 25.3952 18.7214C25.0677 18.99 24.5364 19.4256 24.2308 19.7159C24.3254 20.0281 24.4782 20.4637 24.5801 20.7686C24.9658 21.8792 25.4462 23.2585 25.5917 24.5362C25.8465 26.8374 24.8567 27.8973 23.976 28.3837C23.5393 28.6233 23.0517 28.7467 22.5132 28.7467C20.7228 28.7467 18.7795 27.3601 17.2148 26.2422C17.0547 26.126 16.8145 25.9591 16.6034 25.8139C16.3851 25.9663 16.1376 26.1405 15.9848 26.2494C15.7956 26.3874 15.5845 26.5471 15.3589 26.7068C13.9615 27.7304 12.2221 29.0298 10.5263 29.0298Z"
      stroke="currentColor" stroke-width="1.5" stroke-miterlimit="10" stroke-linejoin="round" />
  </symbol>

</svg>